2014014_C5_04_grf
version=1
nRows=15
nColumns=19
inDegrees=no
endheader
time	ground_force_1_vx	ground_force_1_vy	ground_force_1_vz	ground_force_1_px	ground_force_1_py	ground_force_1_pz	ground_force_1_mx	ground_force_1_my	ground_force_1_mz	ground_force_2_vx	ground_force_2_vy	ground_force_2_vz	ground_force_2_px	ground_force_2_py	ground_force_2_pz	ground_force_2_mx	ground_force_2_my	ground_force_2_mz
      0.39200000	      0.00000000	      0.00000000	      0.00000000	      0.00000000	      0.00000000	      0.00000000	      0.00000000	      0.00000000	      0.00000000	      1.56374933	    626.66848302	     17.25024059	     -0.87030980	     -0.00200000	      0.17561529	      0.00000000	     -6.75516402	      0.00000000
      0.39300000	      0.00000000	      0.00000000	      0.00000000	      0.00000000	      0.00000000	      0.00000000	      0.00000000	      0.00000000	      0.00000000	      2.06636099	    629.49813902	     17.42603928	     -0.86981325	     -0.00200000	      0.17557309	      0.00000000	     -6.81088638	      0.00000000
      0.39400000	      0.00000000	      0.00000000	      0.00000000	      0.00000000	      0.00000000	      0.00000000	      0.00000000	      0.00000000	      0.00000000	      2.56845000	    632.39522278	     17.61365309	     -0.86931340	     -0.00200000	      0.17553162	      0.00000000	     -6.86579409	      0.00000000
      0.39500000	      0.00000000	      0.00000000	      0.00000000	      0.00000000	      0.00000000	      0.00000000	      0.00000000	      0.00000000	      0.00000000	      3.06940431	    635.37549227	     17.81600900	     -0.86880913	     -0.00200000	      0.17549104	      0.00000000	     -6.91962097	      0.00000000
      0.39600000	      0.00000000	      0.00000000	      0.00000000	      0.00000000	      0.00000000	      0.00000000	      0.00000000	      0.00000000	      0.00000000	      3.56906466	    638.42162490	     18.03012751	     -0.86830107	     -0.00200000	      0.17545119	      0.00000000	     -6.97253259	      0.00000000
      0.39700000	      0.00000000	      0.00000000	      0.00000000	      0.00000000	      0.00000000	      0.00000000	      0.00000000	      0.00000000	      0.00000000	      4.06661705	    641.54900610	     18.25888921	     -0.86778797	     -0.00200000	      0.17541224	      0.00000000	     -7.02423530	      0.00000000
      0.39800000	      0.00000000	      0.00000000	      0.00000000	      0.00000000	      0.00000000	      0.00000000	      0.00000000	      0.00000000	      0.00000000	      4.56208794	    644.74061131	     18.49929951	     -0.86727056	     -0.00200000	      0.17537399	      0.00000000	     -7.07491738	      0.00000000
      0.39900000	      0.00000000	      0.00000000	      0.00000000	      0.00000000	      0.00000000	      0.00000000	      0.00000000	      0.00000000	      0.00000000	      5.05446660	    648.01137894	     18.75416581	     -0.86674749	     -0.00200000	      0.17533663	      0.00000000	     -7.12425398	      0.00000000
      0.40000000	      0.00000000	      0.00000000	      0.00000000	      0.00000000	      0.00000000	      0.00000000	      0.00000000	      0.00000000	      0.00000000	      5.54398005	    651.34458244	     19.02050525	     -0.86621964	     -0.00200000	      0.17529994	      0.00000000	     -7.17245749	      0.00000000
      0.40100000	      0.00000000	      0.00000000	      0.00000000	      0.00000000	      0.00000000	      0.00000000	      0.00000000	      0.00000000	      0.00000000	      6.02942077	    654.75478768	     19.30105314	     -0.86568548	     -0.00200000	      0.17526411	      0.00000000	     -7.21917309	      0.00000000
      0.40200000	      0.00000000	      0.00000000	      0.00000000	      0.00000000	      0.00000000	      0.00000000	      0.00000000	      0.00000000	      0.00000000	      6.51121046	    658.22564065	     19.59284395	     -0.86514605	     -0.00200000	      0.17522893	      0.00000000	     -7.26464090	      0.00000000
      0.40300000	      0.00000000	      0.00000000	      0.00000000	      0.00000000	      0.00000000	      0.00000000	      0.00000000	      0.00000000	      0.00000000	      6.98794832	    661.77118570	     19.89851631	     -0.86459973	     -0.00200000	      0.17519457	      0.00000000	     -7.30847659	      0.00000000
      0.40400000	      0.00000000	      0.00000000	      0.00000000	      0.00000000	      0.00000000	      0.00000000	      0.00000000	      0.00000000	      0.00000000	      7.46025704	    665.37529230	     20.21513656	     -0.86404776	     -0.00200000	      0.17516084	      0.00000000	     -7.35094781	      0.00000000
      0.40500000	      0.00000000	      0.00000000	      0.00000000	      0.00000000	      0.00000000	      0.00000000	      0.00000000	      0.00000000	      0.00000000	      7.92655942	    669.05144602	     20.54524049	     -0.86348844	     -0.00200000	      0.17512789	      0.00000000	     -7.39163859	      0.00000000
      0.40600000	      0.00000000	      0.00000000	      0.00000000	      0.00000000	      0.00000000	      0.00000000	      0.00000000	      0.00000000	      0.00000000	      8.38769716	    672.78407514	     20.88595480	     -0.86292310	     -0.00200000	      0.17509555	      0.00000000	     -7.43084500	      0.00000000
